{
  "asset": {
    "version": "2.0",
    "generator": "THREE.GLTFExporter"
  },
  "scenes": [
    {
      "nodes": [
        3,
        6,
        10,
        13
      ]
    }
  ],
  "scene": 0,
  "nodes": [
    {
      "name": "RimsBlack",
      "mesh": 0
    },
    {
      "name": "RimsSilver",
      "mesh": 1
    },
    {
      "name": "Tire",
      "mesh": 2
    },
    {
      "name": "Wheel",
      "children": [
        0,
        1,
        2
      ]
    },
    {
      "name": "Disc",
      "mesh": 3
    },
    {
      "name": "Pad",
      "mesh": 4
    },
    {
      "name": "Brake",
      "children": [
        4,
        5
      ]
    },
    {
      "name": "RimsBlack",
      "mesh": 5
    },
    {
      "name": "RimsSilver",
      "mesh": 6
    },
    {
      "name": "Tire",
      "mesh": 7
    },
    {
      "name": "Wheel",
      "children": [
        7,
        8,
        9
      ]
    },
    {
      "name": "Disc",
      "mesh": 8
    },
    {
      "name": "Pad",
      "mesh": 9
    },
    {
      "name": "Brake",
      "children": [
        11,
        12
      ]
    }
  ],
  "bufferViews": [
    {
      "buffer": 0,
      "byteOffset": 0,
      "byteLength": 24816,
      "target": 34962,
      "byteStride": 12
    },
    {
      "buffer": 0,
      "byteOffset": 24816,
      "byteLength": 21128,
      "target": 34963
    },
    {
      "buffer": 0,
      "byteOffset": 45944,
      "byteLength": 4884,
      "target": 34962,
      "byteStride": 12
    },
    {
      "buffer": 0,
      "byteOffset": 50828,
      "byteLength": 2348,
      "target": 34963
    },
    {
      "buffer": 0,
      "byteOffset": 53176,
      "byteLength": 8052,
      "target": 34962,
      "byteStride": 12
    },
    {
      "buffer": 0,
      "byteOffset": 61228,
      "byteLength": 5368,
      "target": 34962,
      "byteStride": 8
    },
    {
      "buffer": 0,
      "byteOffset": 66596,
      "byteLength": 7200,
      "target": 34963
    },
    {
      "buffer": 0,
      "byteOffset": 73796,
      "byteLength": 2448,
      "target": 34962,
      "byteStride": 12
    },
    {
      "buffer": 0,
      "byteOffset": 76244,
      "byteLength": 1856,
      "target": 34963
    },
    {
      "buffer": 0,
      "byteOffset": 78100,
      "byteLength": 6144,
      "target": 34962,
      "byteStride": 12
    },
    {
      "buffer": 0,
      "byteOffset": 84244,
      "byteLength": 5592,
      "target": 34963
    },
    {
      "buffer": 0,
      "byteOffset": 89836,
      "byteLength": 24816,
      "target": 34962,
      "byteStride": 12
    },
    {
      "buffer": 0,
      "byteOffset": 114652,
      "byteLength": 21128,
      "target": 34963
    },
    {
      "buffer": 0,
      "byteOffset": 135780,
      "byteLength": 4884,
      "target": 34962,
      "byteStride": 12
    },
    {
      "buffer": 0,
      "byteOffset": 140664,
      "byteLength": 2348,
      "target": 34963
    },
    {
      "buffer": 0,
      "byteOffset": 143012,
      "byteLength": 8052,
      "target": 34962,
      "byteStride": 12
    },
    {
      "buffer": 0,
      "byteOffset": 151064,
      "byteLength": 5368,
      "target": 34962,
      "byteStride": 8
    },
    {
      "buffer": 0,
      "byteOffset": 156432,
      "byteLength": 7200,
      "target": 34963
    },
    {
      "buffer": 0,
      "byteOffset": 163632,
      "byteLength": 2448,
      "target": 34962,
      "byteStride": 12
    },
    {
      "buffer": 0,
      "byteOffset": 166080,
      "byteLength": 1856,
      "target": 34963
    },
    {
      "buffer": 0,
      "byteOffset": 167936,
      "byteLength": 6144,
      "target": 34962,
      "byteStride": 12
    },
    {
      "buffer": 0,
      "byteOffset": 174080,
      "byteLength": 5592,
      "target": 34963
    }
  ],
  "buffers": [
    {
      "byteLength": 179672,
      "uri": "data:application/octet-stream;base64,"
    }
  ],
  "accessors": [
    {
      "bufferView": 0,
      "componentType": 5126,
      "count": 2068,
      "max": [
        880,
        358,
        881
      ],
      "min": [
        120,
        14,
        119
      ],
      "type": "VEC3"
    },
    {
      "bufferView": 1,
      "componentType": 5123,
      "count": 10563,
      "max": [
        2067
      ],
      "min": [
        0
      ],
      "type": "SCALAR"
    },
    {
      "bufferView": 2,
      "componentType": 5126,
      "count": 407,
      "max": [
        876,
        358,
        875
      ],
      "min": [
        124,
        307,
        126
      ],
      "type": "VEC3"
    },
    {
      "bufferView": 3,
      "componentType": 5123,
      "count": 1173,
      "max": [
        406
      ],
      "min": [
        0
      ],
      "type": "SCALAR"
    },
    {
      "bufferView": 4,
      "componentType": 5126,
      "count": 671,
      "max": [
        995,
        373,
        995
      ],
      "min": [
        5,
        13,
        5
      ],
      "type": "VEC3"
    },
    {
      "bufferView": 5,
      "componentType": 5126,
      "count": 671,
      "max": [
        0.9980000257492065,
        0.9929999709129333
      ],
      "min": [
        0.0010000000474974513,
        0.004999999888241291
      ],
      "type": "VEC2"
    },
    {
      "bufferView": 6,
      "componentType": 5123,
      "count": 3600,
      "max": [
        670
      ],
      "min": [
        0
      ],
      "type": "SCALAR"
    },
    {
      "bufferView": 7,
      "componentType": 5126,
      "count": 204,
      "max": [
        726,
        243,
        745
      ],
      "min": [
        253,
        146,
        253
      ],
      "type": "VEC3"
    },
    {
      "bufferView": 8,
      "componentType": 5123,
      "count": 927,
      "max": [
        203
      ],
      "min": [
        0
      ],
      "type": "SCALAR"
    },
    {
      "bufferView": 9,
      "componentType": 5126,
      "count": 512,
      "max": [
        740,
        293,
        670
      ],
      "min": [
        646,
        105,
        327
      ],
      "type": "VEC3"
    },
    {
      "bufferView": 10,
      "componentType": 5123,
      "count": 2796,
      "max": [
        511
      ],
      "min": [
        0
      ],
      "type": "SCALAR"
    },
    {
      "bufferView": 11,
      "componentType": 5126,
      "count": 2068,
      "max": [
        880,
        358,
        881
      ],
      "min": [
        120,
        14,
        119
      ],
      "type": "VEC3"
    },
    {
      "bufferView": 12,
      "componentType": 5123,
      "count": 10563,
      "max": [
        2067
      ],
      "min": [
        0
      ],
      "type": "SCALAR"
    },
    {
      "bufferView": 13,
      "componentType": 5126,
      "count": 407,
      "max": [
        876,
        358,
        875
      ],
      "min": [
        124,
        307,
        126
      ],
      "type": "VEC3"
    },
    {
      "bufferView": 14,
      "componentType": 5123,
      "count": 1173,
      "max": [
        406
      ],
      "min": [
        0
      ],
      "type": "SCALAR"
    },
    {
      "bufferView": 15,
      "componentType": 5126,
      "count": 671,
      "max": [
        995,
        373,
        995
      ],
      "min": [
        5,
        13,
        5
      ],
      "type": "VEC3"
    },
    {
      "bufferView": 16,
      "componentType": 5126,
      "count": 671,
      "max": [
        0.9980000257492065,
        0.9929999709129333
      ],
      "min": [
        0.0010000000474974513,
        0.004999999888241291
      ],
      "type": "VEC2"
    },
    {
      "bufferView": 17,
      "componentType": 5123,
      "count": 3600,
      "max": [
        670
      ],
      "min": [
        0
      ],
      "type": "SCALAR"
    },
    {
      "bufferView": 18,
      "componentType": 5126,
      "count": 204,
      "max": [
        726,
        243,
        745
      ],
      "min": [
        253,
        146,
        253
      ],
      "type": "VEC3"
    },
    {
      "bufferView": 19,
      "componentType": 5123,
      "count": 927,
      "max": [
        203
      ],
      "min": [
        0
      ],
      "type": "SCALAR"
    },
    {
      "bufferView": 20,
      "componentType": 5126,
      "count": 512,
      "max": [
        740,
        293,
        670
      ],
      "min": [
        646,
        105,
        327
      ],
      "type": "VEC3"
    },
    {
      "bufferView": 21,
      "componentType": 5123,
      "count": 2796,
      "max": [
        511
      ],
      "min": [
        0
      ],
      "type": "SCALAR"
    }
  ],
  "materials": [
    {
      "pbrMetallicRoughness": {
        "metallicFactor": 0,
        "roughnessFactor": 0.9
      },
      "extensions": {
        "KHR_materials_unlit": {}
      }
    },
    {
      "pbrMetallicRoughness": {
        "metallicFactor": 0,
        "roughnessFactor": 0.9
      },
      "extensions": {
        "KHR_materials_unlit": {}
      }
    },
    {
      "pbrMetallicRoughness": {
        "metallicFactor": 0,
        "roughnessFactor": 0.9
      },
      "extensions": {
        "KHR_materials_unlit": {}
      }
    },
    {
      "pbrMetallicRoughness": {
        "metallicFactor": 0,
        "roughnessFactor": 0.9
      },
      "extensions": {
        "KHR_materials_unlit": {}
      }
    },
    {
      "pbrMetallicRoughness": {
        "metallicFactor": 0,
        "roughnessFactor": 0.9
      },
      "extensions": {
        "KHR_materials_unlit": {}
      }
    },
    {
      "pbrMetallicRoughness": {
        "metallicFactor": 0,
        "roughnessFactor": 0.9
      },
      "extensions": {
        "KHR_materials_unlit": {}
      }
    },
    {
      "pbrMetallicRoughness": {
        "metallicFactor": 0,
        "roughnessFactor": 0.9
      },
      "extensions": {
        "KHR_materials_unlit": {}
      }
    },
    {
      "pbrMetallicRoughness": {
        "metallicFactor": 0,
        "roughnessFactor": 0.9
      },
      "extensions": {
        "KHR_materials_unlit": {}
      }
    },
    {
      "pbrMetallicRoughness": {
        "metallicFactor": 0,
        "roughnessFactor": 0.9
      },
      "extensions": {
        "KHR_materials_unlit": {}
      }
    },
    {
      "pbrMetallicRoughness": {
        "metallicFactor": 0,
        "roughnessFactor": 0.9
      },
      "extensions": {
        "KHR_materials_unlit": {}
      }
    }
  ],
  "meshes": [
    {
      "primitives": [
        {
          "mode": 4,
          "attributes": {
            "POSITION": 0
          },
          "indices": 1,
          "material": 0
        }
      ]
    },
    {
      "primitives": [
        {
          "mode": 4,
          "attributes": {
            "POSITION": 2
          },
          "indices": 3,
          "material": 1
        }
      ]
    },
    {
      "primitives": [
        {
          "mode": 4,
          "attributes": {
            "POSITION": 4,
            "TEXCOORD_0": 5
          },
          "indices": 6,
          "material": 2
        }
      ]
    },
    {
      "primitives": [
        {
          "mode": 4,
          "attributes": {
            "POSITION": 7
          },
          "indices": 8,
          "material": 3
        }
      ]
    },
    {
      "primitives": [
        {
          "mode": 4,
          "attributes": {
            "POSITION": 9
          },
          "indices": 10,
          "material": 4
        }
      ]
    },
    {
      "primitives": [
        {
          "mode": 4,
          "attributes": {
            "POSITION": 11
          },
          "indices": 12,
          "material": 5
        }
      ]
    },
    {
      "primitives": [
        {
          "mode": 4,
          "attributes": {
            "POSITION": 13
          },
          "indices": 14,
          "material": 6
        }
      ]
    },
    {
      "primitives": [
        {
          "mode": 4,
          "attributes": {
            "POSITION": 15,
            "TEXCOORD_0": 16
          },
          "indices": 17,
          "material": 7
        }
      ]
    },
    {
      "primitives": [
        {
          "mode": 4,
          "attributes": {
            "POSITION": 18
          },
          "indices": 19,
          "material": 8
        }
      ]
    },
    {
      "primitives": [
        {
          "mode": 4,
          "attributes": {
            "POSITION": 20
          },
          "indices": 21,
          "material": 9
        }
      ]
    }
  ],
  "extensionsUsed": [
    "KHR_materials_unlit"
  ]
}